<svg xmlns="http://www.w3.org/2000/svg" xmlns:xlink="http://www.w3.org/1999/xlink" contentStyleType="text/css" data-diagram-type="DESCRIPTION" height="1314px" preserveAspectRatio="none" style="width:2357px;height:1314px;background:#FFFFFF;" version="1.1" viewBox="0 0 2357 1314" width="2357px" zoomAndPan="magnify"><title>Generalized Data Processing Pipeline</title><defs/><g><g class="title" data-source-line="13"><text fill="#000000" font-family="Verdana" font-size="22" font-weight="bold" lengthAdjust="spacing" textLength="464.4492" x="941.7754" y="35.4209">Generalized Data Processing Pipeline</text></g><!--cluster Signal Sources--><g class="cluster" data-entity="Signal Sources" data-source-line="15" data-uid="ent0002" id="cluster_Signal Sources"><path d="M739.5,57.6094 L857.1895,57.6094 A3.75,3.75 0 0 1 859.6895,60.1094 L866.6895,79.9063 L1423.5,79.9063 A2.5,2.5 0 0 1 1426,82.4063 L1426,169.1094 A2.5,2.5 0 0 1 1423.5,171.6094 L739.5,171.6094 A2.5,2.5 0 0 1 737,169.1094 L737,60.1094 A2.5,2.5 0 0 1 739.5,57.6094" fill="#FFFFFF" style="stroke:#000000;stroke-width:1;"/><line style="stroke:#000000;stroke-width:1;" x1="737" x2="866.6895" y1="79.9063" y2="79.9063"/><text fill="#000000" font-family="Verdana" font-size="14" font-weight="bold" lengthAdjust="spacing" textLength="116.6895" x="741" y="72.6045">Signal Sources</text></g><!--cluster Go Backend - Ingestion Handlers--><g class="cluster" data-entity="Go Backend - Ingestion Handlers" data-source-line="22" data-uid="ent0007" id="cluster_Go Backend - Ingestion Handlers"><path d="M936.5,235.6094 L1195.9121,235.6094 A3.75,3.75 0 0 1 1198.4121,238.1094 L1205.4121,257.9063 L2347.5,257.9063 A2.5,2.5 0 0 1 2350,260.4063 L2350,463.1094 A2.5,2.5 0 0 1 2347.5,465.6094 L936.5,465.6094 A2.5,2.5 0 0 1 934,463.1094 L934,238.1094 A2.5,2.5 0 0 1 936.5,235.6094" fill="#FFFFFF" style="stroke:#000000;stroke-width:1;"/><line style="stroke:#000000;stroke-width:1;" x1="934" x2="1205.4121" y1="257.9063" y2="257.9063"/><text fill="#000000" font-family="Verdana" font-size="14" font-weight="bold" lengthAdjust="spacing" textLength="258.4121" x="938" y="250.6045">Go Backend - Ingestion Handlers</text></g><!--cluster Supabase PostgreSQL--><g class="cluster" data-entity="Supabase PostgreSQL" data-source-line="51" data-uid="ent0024" id="cluster_Supabase PostgreSQL"><path d="M632,1178.6094 C632,1168.6094 1268.5,1168.6094 1268.5,1168.6094 C1268.5,1168.6094 1905,1168.6094 1905,1178.6094 L1905,1287.6094 C1905,1297.6094 1268.5,1297.6094 1268.5,1297.6094 C1268.5,1297.6094 632,1297.6094 632,1287.6094 L632,1178.6094" fill="#DDE6FF" style="stroke:#5577AA;stroke-width:1;"/><path d="M632,1178.6094 C632,1188.6094 1268.5,1188.6094 1268.5,1188.6094 C1268.5,1188.6094 1905,1188.6094 1905,1178.6094" fill="none" style="stroke:#5577AA;stroke-width:1;"/><text fill="#000000" font-family="Verdana" font-size="14" font-weight="bold" lengthAdjust="spacing" textLength="173.9199" x="1181.54" y="1203.6045">Supabase PostgreSQL</text></g><!--cluster Trade Pipeline--><g class="cluster" data-entity="Trade Pipeline" data-source-line="59" data-uid="ent0030" id="cluster_Trade Pipeline"><path d="M452.5,514.6094 L567.4277,514.6094 A3.75,3.75 0 0 1 569.9277,517.1094 L576.9277,536.9063 L1217.5,536.9063 A2.5,2.5 0 0 1 1220,539.4063 L1220,749.1094 A2.5,2.5 0 0 1 1217.5,751.6094 L452.5,751.6094 A2.5,2.5 0 0 1 450,749.1094 L450,517.1094 A2.5,2.5 0 0 1 452.5,514.6094" fill="#FFFFFF" style="stroke:#000000;stroke-width:1;"/><line style="stroke:#000000;stroke-width:1;" x1="450" x2="576.9277" y1="536.9063" y2="536.9063"/><text fill="#000000" font-family="Verdana" font-size="14" font-weight="bold" lengthAdjust="spacing" textLength="113.9277" x="454" y="529.6045">Trade Pipeline</text></g><!--cluster Exchanges (via API)--><g class="cluster" data-entity="Exchanges .via API." data-source-line="65" data-uid="ent0034" id="cluster_Exchanges .via API."><path d="M393.5,800.6094 L550.8447,800.6094 A3.75,3.75 0 0 1 553.3447,803.1094 L560.3447,822.9063 L767.5,822.9063 A2.5,2.5 0 0 1 770,825.4063 L770,895.1094 A2.5,2.5 0 0 1 767.5,897.6094 L393.5,897.6094 A2.5,2.5 0 0 1 391,895.1094 L391,803.1094 A2.5,2.5 0 0 1 393.5,800.6094" fill="#FFFFFF" style="stroke:#000000;stroke-width:1;"/><line style="stroke:#000000;stroke-width:1;" x1="391" x2="560.3447" y1="822.9063" y2="822.9063"/><text fill="#000000" font-family="Verdana" font-size="14" font-weight="bold" lengthAdjust="spacing" textLength="156.3447" x="395" y="815.6045">Exchanges (via API)</text></g><!--cluster Live UI / WebSockets--><g class="cluster" data-entity="Live UI . WebSockets" data-source-line="70" data-uid="ent0037" id="cluster_Live UI . WebSockets"><path d="M13.5,1024.6094 L179.9434,1024.6094 A3.75,3.75 0 0 1 182.4434,1027.1094 L189.4434,1046.9063 L605.5,1046.9063 A2.5,2.5 0 0 1 608,1049.4063 L608,1299.1094 A2.5,2.5 0 0 1 605.5,1301.6094 L13.5,1301.6094 A2.5,2.5 0 0 1 11,1299.1094 L11,1027.1094 A2.5,2.5 0 0 1 13.5,1024.6094" fill="#FFFFFF" style="stroke:#000000;stroke-width:1;"/><line style="stroke:#000000;stroke-width:1;" x1="11" x2="189.4434" y1="1046.9063" y2="1046.9063"/><text fill="#000000" font-family="Verdana" font-size="14" font-weight="bold" lengthAdjust="spacing" textLength="165.4434" x="15" y="1039.6045">Live UI / WebSockets</text></g><!--entity Discord--><g class="entity" data-entity="Discord" data-source-line="16" data-uid="ent0003" id="entity_Discord"><rect fill="#EEEEEE" height="62.5938" rx="2.5" ry="2.5" style="stroke:#999999;stroke-width:1;" width="195.5791" x="928" y="92.6094"/><rect fill="#EEEEEE" height="10" style="stroke:#999999;stroke-width:1;" width="15" x="1103.5791" y="97.6094"/><rect fill="#EEEEEE" height="2" style="stroke:#999999;stroke-width:1;" width="4" x="1101.5791" y="99.6094"/><rect fill="#EEEEEE" height="2" style="stroke:#999999;stroke-width:1;" width="4" x="1101.5791" y="103.6094"/><text fill="#000000" font-family="Verdana" font-size="14" lengthAdjust="spacing" textLength="155.5791" x="943" y="125.6045">Discord Client/Injector</text><text fill="#000000" font-family="Verdana" font-size="14" lengthAdjust="spacing" textLength="130.416" x="943" y="141.9014">(WebSocket/HTTP)</text></g><!--entity Telegram--><g class="entity" data-entity="Telegram" data-source-line="17" data-uid="ent0004" id="entity_Telegram"><rect fill="#EEEEEE" height="62.5938" rx="2.5" ry="2.5" style="stroke:#999999;stroke-width:1;" width="116.3779" x="1159" y="92.6094"/><rect fill="#EEEEEE" height="10" style="stroke:#999999;stroke-width:1;" width="15" x="1255.3779" y="97.6094"/><rect fill="#EEEEEE" height="2" style="stroke:#999999;stroke-width:1;" width="4" x="1253.3779" y="99.6094"/><rect fill="#EEEEEE" height="2" style="stroke:#999999;stroke-width:1;" width="4" x="1253.3779" y="103.6094"/><text fill="#000000" font-family="Verdana" font-size="14" lengthAdjust="spacing" textLength="66.5273" x="1174" y="125.6045">Telegram</text><text fill="#000000" font-family="Verdana" font-size="14" lengthAdjust="spacing" textLength="76.3779" x="1174" y="141.9014">(Webhook)</text></g><!--entity File--><g class="entity" data-entity="File" data-source-line="18" data-uid="ent0005" id="entity_File"><rect fill="#EEEEEE" height="62.5938" rx="2.5" ry="2.5" style="stroke:#999999;stroke-width:1;" width="99.9785" x="1310" y="92.6094"/><rect fill="#EEEEEE" height="10" style="stroke:#999999;stroke-width:1;" width="15" x="1389.9785" y="97.6094"/><rect fill="#EEEEEE" height="2" style="stroke:#999999;stroke-width:1;" width="4" x="1387.9785" y="99.6094"/><rect fill="#EEEEEE" height="2" style="stroke:#999999;stroke-width:1;" width="4" x="1387.9785" y="103.6094"/><text fill="#000000" font-family="Verdana" font-size="14" lengthAdjust="spacing" textLength="59.835" x="1325" y="125.6045">Text File</text><text fill="#000000" font-family="Verdana" font-size="14" lengthAdjust="spacing" textLength="59.9785" x="1325" y="141.9014">(Upload)</text></g><!--entity PWAManual--><g class="entity" data-entity="PWAManual" data-source-line="19" data-uid="ent0006" id="entity_PWAManual"><rect fill="#EEEEEE" height="62.5938" rx="2.5" ry="2.5" style="stroke:#999999;stroke-width:1;" width="139.4219" x="753.5" y="92.6094"/><rect fill="#EEEEEE" height="10" style="stroke:#999999;stroke-width:1;" width="15" x="872.9219" y="97.6094"/><rect fill="#EEEEEE" height="2" style="stroke:#999999;stroke-width:1;" width="4" x="870.9219" y="99.6094"/><rect fill="#EEEEEE" height="2" style="stroke:#999999;stroke-width:1;" width="4" x="870.9219" y="103.6094"/><text fill="#000000" font-family="Verdana" font-size="14" lengthAdjust="spacing" textLength="99.4219" x="768.5" y="125.6045">Frontend PWA</text><text fill="#000000" font-family="Verdana" font-size="14" lengthAdjust="spacing" textLength="92.3809" x="768.5" y="141.9014">(Manual Call)</text></g><!--entity DH--><g class="entity" data-entity="DH" data-source-line="23" data-uid="ent0008" id="entity_DH"><rect fill="#EEEEEE" height="46.2969" rx="2.5" ry="2.5" style="stroke:#999999;stroke-width:1;" width="147.9941" x="950" y="275.1094"/><rect fill="#EEEEEE" height="10" style="stroke:#999999;stroke-width:1;" width="15" x="1077.9941" y="280.1094"/><rect fill="#EEEEEE" height="2" style="stroke:#999999;stroke-width:1;" width="4" x="1075.9941" y="282.1094"/><rect fill="#EEEEEE" height="2" style="stroke:#999999;stroke-width:1;" width="4" x="1075.9941" y="286.1094"/><text fill="#000000" font-family="Verdana" font-size="14" lengthAdjust="spacing" textLength="107.9941" x="965" y="308.1045">DiscordHandler</text></g><g class="entity" data-entity="GMN9" data-source-line="25" data-uid="ent0010" id="entity_GMN9"><path d="M950,390.6094 L950,446.0078 A0,0 0 0 0 950,446.0078 L1381.8965,446.0078 A0,0 0 0 0 1381.8965,446.0078 L1381.8965,400.6094 L1371.8965,390.6094 L1137.94,390.6094 L1050.71,321.2994 L1129.94,390.6094 L950,390.6094 A0,0 0 0 0 950,390.6094" fill="#FFFFFF" style="stroke:#000000;stroke-width:1;"/><path d="M1371.8965,390.6094 L1371.8965,400.6094 L1381.8965,400.6094 L1371.8965,390.6094" fill="#FFFFFF" style="stroke:#000000;stroke-width:1;"/><text fill="#000000" font-family="Verdana" font-size="13" lengthAdjust="spacing" textLength="365.7329" x="956" y="407.6763">Handles native Discord UI/injector POST and WS events.</text><text fill="#000000" font-family="Verdana" font-size="13" lengthAdjust="spacing" textLength="410.8965" x="956" y="422.8091">Exposes POST /api/messages/manual for direct PWA injections.</text><text fill="#000000" font-family="Verdana" font-size="13" lengthAdjust="spacing" textLength="265.0972" x="956" y="437.9419">Resolves thread reply contexts securely.</text></g><!--entity TH--><g class="entity" data-entity="TH" data-source-line="30" data-uid="ent0012" id="entity_TH"><rect fill="#EEEEEE" height="46.2969" rx="2.5" ry="2.5" style="stroke:#999999;stroke-width:1;" width="161.6523" x="1133" y="275.1094"/><rect fill="#EEEEEE" height="10" style="stroke:#999999;stroke-width:1;" width="15" x="1274.6523" y="280.1094"/><rect fill="#EEEEEE" height="2" style="stroke:#999999;stroke-width:1;" width="4" x="1272.6523" y="282.1094"/><rect fill="#EEEEEE" height="2" style="stroke:#999999;stroke-width:1;" width="4" x="1272.6523" y="286.1094"/><text fill="#000000" font-family="Verdana" font-size="14" lengthAdjust="spacing" textLength="121.6523" x="1148" y="308.1045">TelegramHandler</text></g><g class="entity" data-entity="GMN13" data-source-line="32" data-uid="ent0014" id="entity_GMN13"><path d="M1330,278.1094 L1330,294.1094 L1295.16,298.1094 L1330,302.1094 L1330,318.375 A0,0 0 0 0 1330,318.375 L1729.5425,318.375 A0,0 0 0 0 1729.5425,318.375 L1729.5425,288.1094 L1719.5425,278.1094 L1330,278.1094 A0,0 0 0 0 1330,278.1094" fill="#FFFFFF" style="stroke:#000000;stroke-width:1;"/><path d="M1719.5425,278.1094 L1719.5425,288.1094 L1729.5425,288.1094 L1719.5425,278.1094" fill="#FFFFFF" style="stroke:#000000;stroke-width:1;"/><text fill="#000000" font-family="Verdana" font-size="13" lengthAdjust="spacing" textLength="377.7871" x="1336" y="295.1763">Parses Telegram 'message' and 'channel_post' webhooks.</text><text fill="#000000" font-family="Verdana" font-size="13" lengthAdjust="spacing" textLength="378.5425" x="1336" y="310.3091">Constructs unique internal message_ids (tg_{chat}_{id}).</text></g><!--entity FH--><g class="entity" data-entity="FH" data-source-line="36" data-uid="ent0016" id="entity_FH"><rect fill="#EEEEEE" height="46.2969" rx="2.5" ry="2.5" style="stroke:#999999;stroke-width:1;" width="164.0107" x="2170" y="275.1094"/><rect fill="#EEEEEE" height="10" style="stroke:#999999;stroke-width:1;" width="15" x="2314.0107" y="280.1094"/><rect fill="#EEEEEE" height="2" style="stroke:#999999;stroke-width:1;" width="4" x="2312.0107" y="282.1094"/><rect fill="#EEEEEE" height="2" style="stroke:#999999;stroke-width:1;" width="4" x="2312.0107" y="286.1094"/><text fill="#000000" font-family="Verdana" font-size="14" lengthAdjust="spacing" textLength="124.0107" x="2185" y="308.1045">FileParserHandler</text></g><g class="entity" data-entity="GMN17" data-source-line="38" data-uid="ent0018" id="entity_GMN17"><path d="M1765,270.6094 L1765,326.0078 A0,0 0 0 0 1765,326.0078 L2135.4956,326.0078 A0,0 0 0 0 2135.4956,326.0078 L2135.4956,302.1094 L2169.88,298.1094 L2135.4956,294.1094 L2135.4956,280.6094 L2125.4956,270.6094 L1765,270.6094 A0,0 0 0 0 1765,270.6094" fill="#FFFFFF" style="stroke:#000000;stroke-width:1;"/><path d="M2125.4956,270.6094 L2125.4956,280.6094 L2135.4956,280.6094 L2125.4956,270.6094" fill="#FFFFFF" style="stroke:#000000;stroke-width:1;"/><text fill="#000000" font-family="Verdana" font-size="13" lengthAdjust="spacing" textLength="349.4956" x="1771" y="287.6763">Reads multipart/form-data text uploads from Admins.</text><text fill="#000000" font-family="Verdana" font-size="13" lengthAdjust="spacing" textLength="345.0015" x="1771" y="302.8091">Constructs single unified massive payload context to</text><text fill="#000000" font-family="Verdana" font-size="13" lengthAdjust="spacing" textLength="267.2935" x="1771" y="317.9419">be passed into Gemini for block analysis.</text></g><!--entity Dedupe--><g class="entity" data-entity="Dedupe" data-source-line="43" data-uid="ent0020" id="entity_Dedupe"><rect fill="#EEEEEE" height="62.5938" rx="2.5" ry="2.5" style="stroke:#999999;stroke-width:1;" width="183.1035" x="1417.5" y="386.6094"/><rect fill="#EEEEEE" height="10" style="stroke:#999999;stroke-width:1;" width="15" x="1580.6035" y="391.6094"/><rect fill="#EEEEEE" height="2" style="stroke:#999999;stroke-width:1;" width="4" x="1578.6035" y="393.6094"/><rect fill="#EEEEEE" height="2" style="stroke:#999999;stroke-width:1;" width="4" x="1578.6035" y="397.6094"/><text fill="#000000" font-family="Verdana" font-size="14" lengthAdjust="spacing" textLength="121.1533" x="1432.5" y="419.6045">InsertAndProcess</text><text fill="#000000" font-family="Verdana" font-size="14" lengthAdjust="spacing" textLength="143.1035" x="1432.5" y="435.9014">(Core deduplication)</text></g><g class="entity" data-entity="GMN21" data-source-line="45" data-uid="ent0022" id="entity_GMN21"><path d="M1636,390.6094 L1636,414.1094 L1600.6,418.1094 L1636,422.1094 L1636,446.0078 A0,0 0 0 0 1636,446.0078 L1942.2446,446.0078 A0,0 0 0 0 1942.2446,446.0078 L1942.2446,400.6094 L1932.2446,390.6094 L1636,390.6094 A0,0 0 0 0 1636,390.6094" fill="#FFFFFF" style="stroke:#000000;stroke-width:1;"/><path d="M1932.2446,390.6094 L1932.2446,400.6094 L1942.2446,400.6094 L1932.2446,390.6094" fill="#FFFFFF" style="stroke:#000000;stroke-width:1;"/><text fill="#000000" font-family="Verdana" font-size="13" lengthAdjust="spacing" textLength="281.1123" x="1642" y="407.6763">Deduplicates by message_id and filters out</text><text fill="#000000" font-family="Verdana" font-size="13" lengthAdjust="spacing" textLength="270.5435" x="1642" y="422.8091">chat "dust" / noise (e.g., empty payloads,</text><text fill="#000000" font-family="Verdana" font-size="13" lengthAdjust="spacing" textLength="281.0488" x="1642" y="437.9419">unsubscribed channels) before invoking AI.</text></g><!--entity DBMsgs--><g class="entity" data-entity="DBMsgs" data-source-line="52" data-uid="ent0025" id="entity_DBMsgs"><rect fill="#EEEEEE" height="46.2969" rx="2.5" ry="2.5" style="stroke:#999999;stroke-width:1;" width="242.0293" x="1342" y="1227.1094"/><rect fill="#EEEEEE" height="10" style="stroke:#999999;stroke-width:1;" width="15" x="1564.0293" y="1232.1094"/><rect fill="#EEEEEE" height="2" style="stroke:#999999;stroke-width:1;" width="4" x="1562.0293" y="1234.1094"/><rect fill="#EEEEEE" height="2" style="stroke:#999999;stroke-width:1;" width="4" x="1562.0293" y="1238.1094"/><text fill="#000000" font-family="Verdana" font-size="14" lengthAdjust="spacing" textLength="202.0293" x="1357" y="1260.1045">call_catch.discord_messages</text></g><!--entity DBAILog--><g class="entity" data-entity="DBAILog" data-source-line="53" data-uid="ent0026" id="entity_DBAILog"><rect fill="#EEEEEE" height="46.2969" rx="2.5" ry="2.5" style="stroke:#999999;stroke-width:1;" width="154.6523" x="1151.5" y="1227.1094"/><rect fill="#EEEEEE" height="10" style="stroke:#999999;stroke-width:1;" width="15" x="1286.1523" y="1232.1094"/><rect fill="#EEEEEE" height="2" style="stroke:#999999;stroke-width:1;" width="4" x="1284.1523" y="1234.1094"/><rect fill="#EEEEEE" height="2" style="stroke:#999999;stroke-width:1;" width="4" x="1284.1523" y="1238.1094"/><text fill="#000000" font-family="Verdana" font-size="14" lengthAdjust="spacing" textLength="114.6523" x="1166.5" y="1260.1045">call_catch.ai_log</text></g><!--entity DBTrades--><g class="entity" data-entity="DBTrades" data-source-line="54" data-uid="ent0027" id="entity_DBTrades"><rect fill="#EEEEEE" height="46.2969" rx="2.5" ry="2.5" style="stroke:#999999;stroke-width:1;" width="208.5537" x="907.5" y="1227.1094"/><rect fill="#EEEEEE" height="10" style="stroke:#999999;stroke-width:1;" width="15" x="1096.0537" y="1232.1094"/><rect fill="#EEEEEE" height="2" style="stroke:#999999;stroke-width:1;" width="4" x="1094.0537" y="1234.1094"/><rect fill="#EEEEEE" height="2" style="stroke:#999999;stroke-width:1;" width="4" x="1094.0537" y="1238.1094"/><text fill="#000000" font-family="Verdana" font-size="14" lengthAdjust="spacing" textLength="168.5537" x="922.5" y="1260.1045">call_catch.trade_actions</text></g><!--entity DBSubs--><g class="entity" data-entity="DBSubs" data-source-line="55" data-uid="ent0028" id="entity_DBSubs"><rect fill="#EEEEEE" height="62.5938" rx="2.5" ry="2.5" style="stroke:#999999;stroke-width:1;" width="268.9287" x="1619.5" y="1218.6094"/><rect fill="#EEEEEE" height="10" style="stroke:#999999;stroke-width:1;" width="15" x="1868.4287" y="1223.6094"/><rect fill="#EEEEEE" height="2" style="stroke:#999999;stroke-width:1;" width="4" x="1866.4287" y="1225.6094"/><rect fill="#EEEEEE" height="2" style="stroke:#999999;stroke-width:1;" width="4" x="1866.4287" y="1229.6094"/><text fill="#000000" font-family="Verdana" font-size="14" lengthAdjust="spacing" textLength="228.9287" x="1634.5" y="1251.6045">call_catch.channel_subscriptions</text><text fill="#000000" font-family="Verdana" font-size="14" lengthAdjust="spacing" textLength="159.7217" x="1634.5" y="1267.9014">&amp; exchange_mappings</text></g><!--entity DBPos--><g class="entity" data-entity="DBPos" data-source-line="56" data-uid="ent0029" id="entity_DBPos"><rect fill="#EEEEEE" height="46.2969" rx="2.5" ry="2.5" style="stroke:#999999;stroke-width:1;" width="224.4473" x="648" y="1227.1094"/><rect fill="#EEEEEE" height="10" style="stroke:#999999;stroke-width:1;" width="15" x="852.4473" y="1232.1094"/><rect fill="#EEEEEE" height="2" style="stroke:#999999;stroke-width:1;" width="4" x="850.4473" y="1234.1094"/><rect fill="#EEEEEE" height="2" style="stroke:#999999;stroke-width:1;" width="4" x="850.4473" y="1238.1094"/><text fill="#000000" font-family="Verdana" font-size="14" lengthAdjust="spacing" textLength="184.4473" x="663" y="1260.1045">call_catch.position_history</text></g><!--entity TP--><g class="entity" data-entity="TP" data-source-line="60" data-uid="ent0031" id="entity_TP"><rect fill="#EEEEEE" height="46.2969" rx="2.5" ry="2.5" style="stroke:#999999;stroke-width:1;" width="148.3701" x="987" y="549.6094"/><rect fill="#EEEEEE" height="10" style="stroke:#999999;stroke-width:1;" width="15" x="1115.3701" y="554.6094"/><rect fill="#EEEEEE" height="2" style="stroke:#999999;stroke-width:1;" width="4" x="1113.3701" y="556.6094"/><rect fill="#EEEEEE" height="2" style="stroke:#999999;stroke-width:1;" width="4" x="1113.3701" y="560.6094"/><text fill="#000000" font-family="Verdana" font-size="14" lengthAdjust="spacing" textLength="108.3701" x="1002" y="582.6045">TradeProcessor</text></g><!--entity Gemini--><g class="entity" data-entity="Gemini" data-source-line="61" data-uid="ent0032" id="entity_Gemini"><rect fill="#EEEEEE" height="62.5938" rx="2.5" ry="2.5" style="stroke:#999999;stroke-width:1;" width="126.5225" x="602.5" y="672.6094"/><rect fill="#EEEEEE" height="10" style="stroke:#999999;stroke-width:1;" width="15" x="709.0225" y="677.6094"/><rect fill="#EEEEEE" height="2" style="stroke:#999999;stroke-width:1;" width="4" x="707.0225" y="679.6094"/><rect fill="#EEEEEE" height="2" style="stroke:#999999;stroke-width:1;" width="4" x="707.0225" y="683.6094"/><text fill="#000000" font-family="Verdana" font-size="14" lengthAdjust="spacing" textLength="76.3506" x="617.5" y="705.6045">Gemini API</text><text fill="#000000" font-family="Verdana" font-size="14" lengthAdjust="spacing" textLength="86.5225" x="617.5" y="721.9014">(Ai Analysis)</text></g><!--entity Placer--><g class="entity" data-entity="Placer" data-source-line="62" data-uid="ent0033" id="entity_Placer"><rect fill="#EEEEEE" height="62.5938" rx="2.5" ry="2.5" style="stroke:#999999;stroke-width:1;" width="177.9902" x="777" y="672.6094"/><rect fill="#EEEEEE" height="10" style="stroke:#999999;stroke-width:1;" width="15" x="934.9902" y="677.6094"/><rect fill="#EEEEEE" height="2" style="stroke:#999999;stroke-width:1;" width="4" x="932.9902" y="679.6094"/><rect fill="#EEEEEE" height="2" style="stroke:#999999;stroke-width:1;" width="4" x="932.9902" y="683.6094"/><text fill="#000000" font-family="Verdana" font-size="14" lengthAdjust="spacing" textLength="83.0088" x="792" y="705.6045">OrderPlacer</text><text fill="#000000" font-family="Verdana" font-size="14" lengthAdjust="spacing" textLength="137.9902" x="792" y="721.9014">(Fan-out Execution)</text></g><!--entity BitUnix--><g class="entity" data-entity="BitUnix" data-source-line="66" data-uid="ent0035" id="entity_BitUnix"><rect fill="#EEEEEE" height="46.2969" rx="2.5" ry="2.5" style="stroke:#999999;stroke-width:1;" width="152.9229" x="600.5" y="835.6094"/><rect fill="#EEEEEE" height="10" style="stroke:#999999;stroke-width:1;" width="15" x="733.4229" y="840.6094"/><rect fill="#EEEEEE" height="2" style="stroke:#999999;stroke-width:1;" width="4" x="731.4229" y="842.6094"/><rect fill="#EEEEEE" height="2" style="stroke:#999999;stroke-width:1;" width="4" x="731.4229" y="846.6094"/><text fill="#000000" font-family="Verdana" font-size="14" lengthAdjust="spacing" textLength="112.9229" x="615.5" y="868.6045">BitUnix Provider</text></g><!--entity Phemex--><g class="entity" data-entity="Phemex" data-source-line="67" data-uid="ent0036" id="entity_Phemex"><rect fill="#EEEEEE" height="46.2969" rx="2.5" ry="2.5" style="stroke:#999999;stroke-width:1;" width="159.1094" x="406.5" y="835.6094"/><rect fill="#EEEEEE" height="10" style="stroke:#999999;stroke-width:1;" width="15" x="545.6094" y="840.6094"/><rect fill="#EEEEEE" height="2" style="stroke:#999999;stroke-width:1;" width="4" x="543.6094" y="842.6094"/><rect fill="#EEEEEE" height="2" style="stroke:#999999;stroke-width:1;" width="4" x="543.6094" y="846.6094"/><text fill="#000000" font-family="Verdana" font-size="14" lengthAdjust="spacing" textLength="119.1094" x="421.5" y="868.6045">Phemex Provider</text></g><!--entity UIWS--><g class="entity" data-entity="UIWS" data-source-line="71" data-uid="ent0038" id="entity_UIWS"><rect fill="#EEEEEE" height="46.2969" rx="2.5" ry="2.5" style="stroke:#999999;stroke-width:1;" width="166.499" x="426" y="1059.6094"/><rect fill="#EEEEEE" height="10" style="stroke:#999999;stroke-width:1;" width="15" x="572.499" y="1064.6094"/><rect fill="#EEEEEE" height="2" style="stroke:#999999;stroke-width:1;" width="4" x="570.499" y="1066.6094"/><rect fill="#EEEEEE" height="2" style="stroke:#999999;stroke-width:1;" width="4" x="570.499" y="1070.6094"/><text fill="#000000" font-family="Verdana" font-size="14" lengthAdjust="spacing" textLength="126.499" x="441" y="1092.6045">System UI WSHub</text></g><!--entity PosWS--><g class="entity" data-entity="PosWS" data-source-line="72" data-uid="ent0039" id="entity_PosWS"><rect fill="#EEEEEE" height="46.2969" rx="2.5" ry="2.5" style="stroke:#999999;stroke-width:1;" width="150.4756" x="241" y="1059.6094"/><rect fill="#EEEEEE" height="10" style="stroke:#999999;stroke-width:1;" width="15" x="371.4756" y="1064.6094"/><rect fill="#EEEEEE" height="2" style="stroke:#999999;stroke-width:1;" width="4" x="369.4756" y="1066.6094"/><rect fill="#EEEEEE" height="2" style="stroke:#999999;stroke-width:1;" width="4" x="369.4756" y="1070.6094"/><text fill="#000000" font-family="Verdana" font-size="14" lengthAdjust="spacing" textLength="110.4756" x="256" y="1092.6045">Position WSHub</text></g><g class="entity" data-entity="GMN40" data-source-line="74" data-uid="ent0041" id="entity_GMN40"><path d="M27,1214.6094 L27,1285.1406 L365.021,1285.1406 L365.021,1224.6094 L355.021,1214.6094 L27,1214.6094" fill="#FFFFFF" style="stroke:#000000;stroke-width:1;"/><path d="M355.021,1214.6094 L355.021,1224.6094 L365.021,1224.6094 L355.021,1214.6094" fill="#FFFFFF" style="stroke:#000000;stroke-width:1;"/><text fill="#000000" font-family="Verdana" font-size="13" lengthAdjust="spacing" textLength="265.8779" x="33" y="1231.6763">Strictly filters out "dust" (e.g. qty "0.00")</text><text fill="#000000" font-family="Verdana" font-size="13" lengthAdjust="spacing" textLength="312.8887" x="33" y="1246.8091">and phantom pending closed positions returned</text><text fill="#000000" font-family="Verdana" font-size="13" lengthAdjust="spacing" textLength="303.5513" x="33" y="1261.9419">irregularly by exchange sync endpoints before</text><text fill="#000000" font-family="Verdana" font-size="13" lengthAdjust="spacing" textLength="112.3535" x="33" y="1277.0747">reconciling state.</text></g><!--entity PWADash--><g class="entity" data-entity="PWADash" data-source-line="79" data-uid="ent0043" id="entity_PWADash"><rect fill="#EEEEEE" height="62.5938" rx="2.5" ry="2.5" style="stroke:#999999;stroke-width:1;" width="191.0537" x="400.5" y="1218.6094"/><rect fill="#EEEEEE" height="10" style="stroke:#999999;stroke-width:1;" width="15" x="571.5537" y="1223.6094"/><rect fill="#EEEEEE" height="2" style="stroke:#999999;stroke-width:1;" width="4" x="569.5537" y="1225.6094"/><rect fill="#EEEEEE" height="2" style="stroke:#999999;stroke-width:1;" width="4" x="569.5537" y="1229.6094"/><text fill="#000000" font-family="Verdana" font-size="14" lengthAdjust="spacing" textLength="151.0537" x="415.5" y="1251.6045">Frontend Dashboards</text><text fill="#000000" font-family="Verdana" font-size="14" lengthAdjust="spacing" textLength="102.5664" x="415.5" y="1267.9014">(PWA / Flutter)</text></g><!--link PosWS to GMN40--><g class="link" data-entity-1="PosWS" data-entity-2="GMN40" data-source-line="74" data-uid="lnk42" id="link_PosWS_GMN40"><path d="M240.76,1092.1394 C186.57,1100.0094 120.1,1113.8294 103,1135.6094 C82,1162.3594 108.19,1192.0694 138.07,1214.3894" fill="none" id="PosWS-GMN40" style="stroke:#000000;stroke-width:1;stroke-dasharray:7,7;"/></g><!--link Discord to DH--><g class="link" data-entity-1="Discord" data-entity-2="DH" data-source-line="83" data-uid="lnk44" id="link_Discord_DH"><path d="M1025.64,155.8594 C1025.24,190.1594 1024.6793,238.7998 1024.3293,269.0898" fill="none" id="Discord-to-DH" style="stroke:#000000;stroke-width:1;"/><polygon fill="#000000" points="1024.26,275.0894,1028.3637,266.1362,1024.3178,270.0897,1020.3643,266.0438,1024.26,275.0894" style="stroke:#000000;stroke-width:1;"/></g><!--link PWAManual to DH--><g class="link" data-entity-1="PWAManual" data-entity-2="DH" data-source-line="84" data-uid="lnk45" id="link_PWAManual_DH"><path d="M817.06,156.0094 C814.99,175.9794 815.87,201.5194 829,219.6094 C857.04,258.2294 901.5907,276.2829 944.1307,286.0029" fill="none" id="PWAManual-to-DH" style="stroke:#000000;stroke-width:1;"/><polygon fill="#000000" points="949.98,287.3394,942.0971,281.4351,945.1056,286.2256,940.3151,289.2341,949.98,287.3394" style="stroke:#000000;stroke-width:1;"/><text fill="#000000" font-family="Verdana" font-size="13" lengthAdjust="spacing" textLength="185.25" x="830" y="200.6763">POST /api/messages/manual</text><text fill="#000000" font-family="Verdana" font-size="13" lengthAdjust="spacing" textLength="182.5396" x="831.3552" y="215.8091">(Forces immediate pipeline)</text></g><!--link Telegram to TH--><g class="link" data-entity-1="Telegram" data-entity-2="TH" data-source-line="85" data-uid="lnk46" id="link_Telegram_TH"><path d="M1216.46,155.8594 C1215.87,190.1594 1215.015,238.8003 1214.485,269.0903" fill="none" id="Telegram-to-TH" style="stroke:#000000;stroke-width:1;"/><polygon fill="#000000" points="1214.38,275.0894,1218.5368,266.1607,1214.4675,270.0901,1210.5381,266.0208,1214.38,275.0894" style="stroke:#000000;stroke-width:1;"/></g><!--link File to FH--><g class="link" data-entity-1="File" data-entity-2="FH" data-source-line="86" data-uid="lnk47" id="link_File_FH"><path d="M1410.07,128.4294 C1562.01,139.0094 2015.83,174.3594 2153,227.6094 C2180.99,238.4794 2204.0066,255.0292 2222.9266,270.9292" fill="none" id="File-to-FH" style="stroke:#000000;stroke-width:1;"/><polygon fill="#000000" points="2227.52,274.7894,2223.2034,265.9369,2223.6922,271.5726,2218.0565,272.0614,2227.52,274.7894" style="stroke:#000000;stroke-width:1;"/></g><!--link DH to Dedupe--><g class="link" data-entity-1="DH" data-entity-2="Dedupe" data-source-line="89" data-uid="lnk48" id="link_DH_Dedupe"><path d="M1098.2,320.9594 C1104.21,322.5794 1110.2,324.1494 1116,325.6094 C1241.21,357.0494 1274.67,355.6494 1400,386.6094 C1405.63,387.9994 1405.6054,387.9608 1411.4154,389.4808" fill="none" id="DH-to-Dedupe" style="stroke:#000000;stroke-width:1;"/><polygon fill="#000000" points="1417.22,390.9994,1409.5254,384.8517,1412.3828,389.7339,1407.5006,392.5912,1417.22,390.9994" style="stroke:#000000;stroke-width:1;"/></g><!--link TH to Dedupe--><g class="link" data-entity-1="TH" data-entity-2="Dedupe" data-source-line="90" data-uid="lnk49" id="link_TH_Dedupe"><path d="M1269.14,321.1694 C1315.25,339.6094 1375.9391,363.881 1427.1391,384.361" fill="none" id="TH-to-Dedupe" style="stroke:#000000;stroke-width:1;"/><polygon fill="#000000" points="1432.71,386.5894,1425.8393,379.533,1428.0676,384.7324,1422.8681,386.9608,1432.71,386.5894" style="stroke:#000000;stroke-width:1;"/></g><!--link FH to Dedupe--><g class="link" data-entity-1="FH" data-entity-2="Dedupe" data-source-line="91" data-uid="lnk50" id="link_FH_Dedupe"><path d="M2173.89,321.1594 C2166.86,322.7994 2159.82,324.3194 2153,325.6094 C1918.32,370.1694 1853.48,340.9994 1619,386.6094 C1612.97,387.7794 1612.6349,387.764 1606.4249,389.204" fill="none" id="FH-to-Dedupe" style="stroke:#000000;stroke-width:1;"/><polygon fill="#000000" points="1600.58,390.5594,1610.2509,392.423,1605.4508,389.4299,1608.4438,384.6297,1600.58,390.5594" style="stroke:#000000;stroke-width:1;"/></g><!--link Dedupe to DBMsgs--><g class="link" data-entity-1="Dedupe" data-entity-2="DBMsgs" data-source-line="92" data-uid="lnk51" id="link_Dedupe_DBMsgs"><path d="M1572.63,449.6494 C1636.03,482.2094 1724,534.1394 1724,571.6094 C1724,571.6094 1724,571.6094 1724,1083.6094 C1724,1147.7294 1656.15,1126.2794 1602,1160.6094 C1566.36,1183.1994 1530.7086,1205.9128 1502.5986,1223.8428" fill="none" id="Dedupe-to-DBMsgs" style="stroke:#000000;stroke-width:1;"/><polygon fill="#000000" points="1497.54,1227.0694,1507.2789,1225.6018,1501.7555,1224.3805,1502.9768,1218.8571,1497.54,1227.0694" style="stroke:#000000;stroke-width:1;"/><text fill="#000000" font-family="Verdana" font-size="13" lengthAdjust="spacing" textLength="216.2393" x="1725" y="863.1763">1. Persist (dedup by message_id)</text></g><!--link Dedupe to TP--><g class="link" data-entity-1="Dedupe" data-entity-2="TP" data-source-line="95" data-uid="lnk52" id="link_Dedupe_TP"><path d="M1452.75,449.6794 C1436.06,458.0794 1417.54,466.7594 1400,473.6094 C1310.98,508.3994 1210.3949,535.7405 1140.8449,552.9205" fill="none" id="Dedupe-to-TP" style="stroke:#000000;stroke-width:1;"/><polygon fill="#000000" points="1135.02,554.3594,1144.7166,556.0844,1139.8741,553.1603,1142.7981,548.3178,1135.02,554.3594" style="stroke:#000000;stroke-width:1;"/><text fill="#000000" font-family="Verdana" font-size="13" lengthAdjust="spacing" textLength="106.1582" x="1374" y="494.6763">2. Async Trigger</text></g><!--link TP to Gemini--><g class="link" data-entity-1="TP" data-entity-2="Gemini" data-source-line="98" data-uid="lnk53" id="link_TP_Gemini"><path d="M986.95,575.0094 C841.62,578.5294 530.33,590.1594 498,625.6094 C462.56,664.4694 535.278,684.3648 596.548,694.3448" fill="none" id="TP-to-Gemini" style="stroke:#000000;stroke-width:1;"/><polygon fill="#000000" points="602.47,695.3094,594.2301,689.9145,597.535,694.5055,592.944,697.8104,602.47,695.3094" style="stroke:#000000;stroke-width:1;"/><text fill="#000000" font-family="Verdana" font-size="13" lengthAdjust="spacing" textLength="223.1519" x="499" y="638.6763">3. Analyze text (CALL2COMMAND)</text></g><!--link Gemini to TP--><g class="link" data-entity-1="Gemini" data-entity-2="TP" data-source-line="99" data-uid="lnk54" id="link_Gemini_TP"><path d="M696.06,672.4694 C713.97,656.0194 738.04,636.8594 763,625.6094 C834.82,593.2394 918.8066,581.3948 980.9966,576.7648" fill="none" id="Gemini-to-TP" style="stroke:#000000;stroke-width:1;"/><polygon fill="#000000" points="986.98,576.3194,977.7079,572.9986,981.9938,576.6906,978.3018,580.9765,986.98,576.3194" style="stroke:#000000;stroke-width:1;"/><text fill="#000000" font-family="Verdana" font-size="13" lengthAdjust="spacing" textLength="184.1709" x="764" y="638.6763">4. Return parsed trade JSON</text></g><!--link TP to DBAILog--><g class="link" data-entity-1="TP" data-entity-2="DBAILog" data-source-line="100" data-uid="lnk55" id="link_TP_DBAILog"><path d="M1135.04,588.1894 C1158.34,595.9394 1182.53,607.7394 1200,625.6094 C1225.5,651.6894 1227,666.6394 1227,703.1094 C1227,703.1094 1227,703.1094 1227,1083.6094 C1227,1134.8994 1227.8586,1189.1304 1228.4486,1220.8904" fill="none" id="TP-to-DBAILog" style="stroke:#000000;stroke-width:1;"/><polygon fill="#000000" points="1228.56,1226.8894,1232.3921,1217.8166,1228.4671,1221.8902,1224.3935,1217.9652,1228.56,1226.8894" style="stroke:#000000;stroke-width:1;"/><text fill="#000000" font-family="Verdana" font-size="13" lengthAdjust="spacing" textLength="212.4751" x="1228" y="926.6763">5. Persist Request/Response Log</text></g><!--link TP to DBSubs--><g class="link" data-entity-1="TP" data-entity-2="DBSubs" data-source-line="103" data-uid="lnk56" id="link_TP_DBSubs"><path d="M1135.12,581.0994 C1255.69,595.3594 1481,631.5694 1481,703.1094 C1481,703.1094 1481,703.1094 1481,1083.6094 C1481,1089.9794 1616.4599,1169.4589 1695.8499,1215.5089" fill="none" id="TP-to-DBSubs" style="stroke:#000000;stroke-width:1;"/><polygon fill="#000000" points="1701.04,1218.5194,1695.2619,1210.5436,1696.7149,1216.0106,1691.2479,1217.4637,1701.04,1218.5194" style="stroke:#000000;stroke-width:1;"/><text fill="#000000" font-family="Verdana" font-size="13" lengthAdjust="spacing" textLength="218.5688" x="1482" y="926.6763">6. Fetch Active Users &amp; Mappings</text></g><!--link TP to Placer--><g class="link" data-entity-1="TP" data-entity-2="Placer" data-source-line="106" data-uid="lnk57" id="link_TP_Placer"><path d="M1027.48,595.8694 C995.68,616.9894 952.6284,645.5803 917.2084,669.1003" fill="none" id="TP-to-Placer" style="stroke:#000000;stroke-width:1;"/><polygon fill="#000000" points="912.21,672.4194,921.9203,670.773,916.3753,669.6535,917.4948,664.1085,912.21,672.4194" style="stroke:#000000;stroke-width:1;"/><text fill="#000000" font-family="Verdana" font-size="13" lengthAdjust="spacing" textLength="210.0186" x="981" y="638.6763">7. Multiply actions per user map</text></g><!--link Placer to BitUnix--><g class="link" data-entity-1="Placer" data-entity-2="BitUnix" data-source-line="107" data-uid="lnk58" id="link_Placer_BitUnix"><path d="M827.75,735.9694 C791.19,765.4694 741.6188,805.4607 709.1488,831.6707" fill="none" id="Placer-to-BitUnix" style="stroke:#000000;stroke-width:1;"/><polygon fill="#000000" points="704.48,835.4394,713.9956,832.8989,708.3706,832.2988,708.9707,826.6739,704.48,835.4394" style="stroke:#000000;stroke-width:1;"/><text fill="#000000" font-family="Verdana" font-size="13" lengthAdjust="spacing" textLength="98.8774" x="789" y="780.6763">8. POST Orders</text></g><!--link Placer to Phemex--><g class="link" data-entity-1="Placer" data-entity-2="Phemex" data-source-line="108" data-uid="lnk59" id="link_Placer_Phemex"><path d="M809.34,735.7394 C790.07,744.8794 768.07,753.9594 747,759.6094 C710.78,769.3294 699.76,760.1994 663,767.6094 C626.48,774.9694 616.6,776.5194 583,792.6094 C558.5,804.3394 537.8962,818.0346 519.2262,831.8246" fill="none" id="Placer-to-Phemex" style="stroke:#000000;stroke-width:1;"/><polygon fill="#000000" points="514.4,835.3894,524.0159,833.2597,518.4219,832.4188,519.2629,826.8248,514.4,835.3894" style="stroke:#000000;stroke-width:1;"/><text fill="#000000" font-family="Verdana" font-size="13" lengthAdjust="spacing" textLength="98.8774" x="664" y="780.6763">8. POST Orders</text></g><!--link Placer to DBTrades--><g class="link" data-entity-1="Placer" data-entity-2="DBTrades" data-source-line="109" data-uid="lnk60" id="link_Placer_DBTrades"><path d="M906.39,735.7994 C938.13,763.6994 977,807.9994 977,857.6094 C977,857.6094 977,857.6094 977,1083.6094 C977,1135.8894 992.0515,1189.7777 1002.3615,1221.2377" fill="none" id="Placer-to-DBTrades" style="stroke:#000000;stroke-width:1;"/><polygon fill="#000000" points="1004.23,1226.9394,1005.2283,1217.1412,1002.6729,1222.188,997.6261,1219.6326,1004.23,1226.9394" style="stroke:#000000;stroke-width:1;"/><text fill="#000000" font-family="Verdana" font-size="13" lengthAdjust="spacing" textLength="193.1719" x="978" y="973.6763">9. Record trade action results</text></g><!--link BitUnix to PosWS--><g class="link" data-entity-1="BitUnix" data-entity-2="PosWS" data-source-line="112" data-uid="lnk61" id="link_BitUnix_PosWS"><path d="M654.59,881.6394 C626.92,907.7694 577.44,951.1094 528,977.6094 C478.57,1004.0994 458.13,991.4794 408,1016.6094 C384.57,1028.3494 365.1893,1041.917 347.5393,1055.697" fill="none" id="BitUnix-to-PosWS" style="stroke:#000000;stroke-width:1;stroke-dasharray:7,7;"/><polygon fill="#000000" points="342.81,1059.3894,352.3656,1057.0037,346.7511,1056.3124,347.4424,1050.698,342.81,1059.3894" style="stroke:#000000;stroke-width:1;"/><text fill="#000000" font-family="Verdana" font-size="13" lengthAdjust="spacing" textLength="109.0654" x="556" y="973.6763">Position Updates</text></g><!--link Phemex to PosWS--><g class="link" data-entity-1="Phemex" data-entity-2="PosWS" data-source-line="113" data-uid="lnk62" id="link_Phemex_PosWS"><path d="M469.08,881.7094 C436.49,924.2594 369.0279,1012.3557 336.4979,1054.8357" fill="none" id="Phemex-to-PosWS" style="stroke:#000000;stroke-width:1;stroke-dasharray:7,7;"/><polygon fill="#000000" points="332.85,1059.5994,341.4977,1054.8858,335.8899,1055.6296,335.1461,1050.0219,332.85,1059.5994" style="stroke:#000000;stroke-width:1;"/><text fill="#000000" font-family="Verdana" font-size="13" lengthAdjust="spacing" textLength="109.0654" x="410" y="973.6763">Position Updates</text></g><!--link PosWS to DBPos--><g class="link" data-entity-1="PosWS" data-entity-2="DBPos" data-source-line="114" data-uid="lnk63" id="link_PosWS_DBPos"><path d="M391.2,1102.1394 C396.87,1103.3694 402.52,1104.5394 408,1105.6094 C495.8,1122.6894 524.41,1101.2794 607,1135.6094 C659.22,1157.3194 705.5896,1196.5479 733.5096,1222.9379" fill="none" id="PosWS-to-DBPos" style="stroke:#000000;stroke-width:1;"/><polygon fill="#000000" points="737.87,1227.0594,734.077,1217.9702,734.2363,1223.6248,728.5817,1223.7841,737.87,1227.0594" style="stroke:#000000;stroke-width:1;"/><text fill="#000000" font-family="Verdana" font-size="13" lengthAdjust="spacing" textLength="122.8652" x="640" y="1148.6763">Reconcile DB state</text></g><!--link PosWS to PWADash--><g class="link" data-entity-1="PosWS" data-entity-2="PWADash" data-source-line="115" data-uid="lnk64" id="link_PosWS_PWADash"><path d="M240.62,1096.4094 C195.19,1107.2094 150.76,1125.3294 177,1152.6094 C192.8,1169.0394 360.58,1152.7994 382,1160.6094 C414.96,1172.6194 441.633,1193.8128 462.963,1214.3028" fill="none" id="PosWS-to-PWADash" style="stroke:#000000;stroke-width:1;"/><polygon fill="#000000" points="467.29,1218.4594,463.5706,1209.3398,463.6842,1214.9956,458.0285,1215.1092,467.29,1218.4594" style="stroke:#000000;stroke-width:1;"/><text fill="#000000" font-family="Verdana" font-size="13" lengthAdjust="spacing" textLength="226.1226" x="178" y="1148.6763">Broadcast array updates internally</text></g><!--reverse link UIWS to DBMsgs--><g class="link" data-entity-1="UIWS" data-entity-2="DBMsgs" data-source-line="116" data-uid="lnk65" id="link_UIWS_DBMsgs"><path d="M598.3253,1086.7763 C777.9553,1093.8763 1190.24,1114.7094 1324,1160.6094 C1367.02,1175.3694 1410.22,1205.9394 1436.79,1226.9794" fill="none" id="UIWS-backto-DBMsgs" style="stroke:#000000;stroke-width:1;"/><polygon fill="#000000" points="592.33,1086.5394,601.165,1090.8917,597.3261,1086.7368,601.481,1082.8979,592.33,1086.5394" style="stroke:#000000;stroke-width:1;"/><text fill="#000000" font-family="Verdana" font-size="13" lengthAdjust="spacing" textLength="131.4219" x="1289" y="1148.6763">Push new messages</text></g><!--link UIWS to PWADash--><g class="link" data-entity-1="UIWS" data-entity-2="PWADash" data-source-line="117" data-uid="lnk66" id="link_UIWS_PWADash"><path d="M449.47,1105.6994 C436.93,1113.2194 425.31,1123.0194 418,1135.6094 C401.14,1164.6594 421.7237,1192.1055 447.8437,1214.4855" fill="none" id="UIWS-to-PWADash" style="stroke:#000000;stroke-width:1;"/><polygon fill="#000000" points="452.4,1218.3894,448.1682,1209.496,448.6031,1215.1361,442.963,1215.5711,452.4,1218.3894" style="stroke:#000000;stroke-width:1;"/><text fill="#000000" font-family="Verdana" font-size="13" lengthAdjust="spacing" textLength="183.1108" x="419" y="1148.6763">Broadcast events/trade logs</text></g><!--SRC=[XLPTRnit47pNhzYwG6m1aPIcJT84HG7Pic8LTgn6ClpG509rHqkixyWBoREj1FdldILv9_aZhL-i8sUNkykTMVxWrxAKL1L2wOwxLheILfIKcR8oMce_yvj2KbqMBtTsboAxNbbJw_p85CRIxLfv-PGrVUqG7Jv0_tWS_dZ7s5pQjFes_7M-xVZ9XHTBuUJJRaQZuzVZyKCthrwzUJCSmat7Au_GtqijhIZK5vdJ2FveQaqcdLDwHLDLoK9fsUbKS2vMalPcQgL5GJDJMw3smib4VusKot0A7HKAQGqc-X-PUMC_wODBkPoPx5hwmSbyFkt-JS9HGaVJkIpa2jb4xDgOwmXgrXlKdQUnAYHW5rLXH1vHl1GHOskqbpgdwUKGe3EXQmHw98eY8h4SrpZtDf_t9XIExNeqqIlfl3AQJeJE2saV9PZMOnOdOKiRBsbfl3SbcQjcbP8BHrfuTIERdEbYCb2fEZGzdyq9CBgSaRn1uLm_6H_VLSR1E206ebA34dU2YDsWZ8bTmJvN5euuCue-4NhhugDqfhY13x-sKkHaPLLiq7eeqfrtv6HMMrbi8fppvqJ2n_rxsKrvlfEoLQkrvupdJSPJOJdcnf3sKypx8SVzR2sqbiK2cVbzkerttOPxXD2zhJE4LclrkPP8oKlBpPRSB5JkwC2l5b_XoNzRV5Nvj-vtm-V6207PtGJ6EmaKyYh4FpvfAoPmGbaNNe5VVe0Ibptc6779g0vjv-ZAugQ7UQdqKy4pSLWHjBfIe5GfG2LSVoKsRDtKdxoXPBlaJUU0HS86V8HZ5QvtMO0ug9qeDawvxsOwqKZI3tMUc8lcFp9MKYvpXAmomMsHYCTByeaxtDcW-14CSPlBpKxzmqLUgG8NuyZKlic1BuJsyjhvFHh0jO8c7SZ-gl-SP5dvJPE-UzvOrDhLIvTPjKJYgJDS5yMuuj2LlZ7Nh433oOEqmTrMzVPcTHL_JT5IAojdVvwsXCr0_0LIoDRzF59lqL0ebkBmpAtS8wnGYyAi4c8uEJMhHn1lHIuN8h8j8UUyzjXRq_8frogOVDBFIDxn5cfQYgf2eesV6O2Fl80mYYqNQ-KW6vk4HTBtf2p4q6fsMuYmd5h391fFurRgjU5qWfuPuaTgjTWiSJSYptc2J0kHITRqiT0zlltZEuZ8jhlY_hsOZbEU8EwD4dnIjmtiKFaBhUvuuDoeF14qBKR4b6Vl0q1SktV8AHFiOeBEQuVDLhXd6-TboTkNivDw6NnSJ2vdwOHKsfrDBANT1yg-tI2QUQio3ptT9KCYG6Xy-eokttlHV_5Yhvjic3iLgi7kAZGqztTM66P-SyCEAkrhgx6KZ9IrSbKNmk8iKB7f6t8RdJ4hAWFLS0rlaX6cWj6PAlW4vq7Z9xHZEoz7mgsNHjYSbODdoO36HUsHLZiu6S8btyU8nEE5_SQ7WEiqSwtN-vrdNpjbqmAz-_uCuquo_8mWLPOoLmYKgjI-tKuxHjWHPWmBUlWDlKOWerrresS831N4iQD3khNytCBP8OIeRFDxN-DxN_5VN0cgWA1_wjCKzmh2qK4Gqlj2sEKG6ghXx1iJ0zdrDP_2pyi-3SDTpQ6rAx03TiD9oxGEG8nDJ7n7F_VZtXSPXyx1qV3qzENH-TdPyCEesqcurlqlVKmjxXWehELE2k94VypEFpIkaum1_6gRqqU92Uly08y4l4IXe2nq2Eq2eoI-70AljpvOcE3YTP_64ff4mooyQXZlKFsp96FiWzNX77HundJVQaJZAwe4VBtfqrcOjMZjfARWXQMQOu0kTXAIZHgjU4U_zcD31KLokvYa5ly5QOGQeBTSkT2viMGn0b378QQGHwiDCznVfucWr-UZM0gujHl8HPNpjEoa6Fu753PYFFWDoCT4MCdj6nYx0qhy0-pGOePc0lSdh1KRl4Y2m_QbL6mwB6tqMw-txUHf3LijRvlkTH7pFS_n7Jg8HS4eT9r_0G00]--></g></svg>